<svg width="73" height="37" viewBox="0 0 73 37" fill="none" xmlns="http://www.w3.org/2000/svg">
<path d="M10.0547 13.875C10.6641 14 11.2812 14.0859 11.9062 14.1328C12.5312 14.1797 13.1641 14.2031 13.8047 14.2031C15.8672 14.2031 17.5547 13.8516 18.8672 13.1484C20.1797 12.4453 21.2109 11.4766 21.9609 10.2422C22.7109 9.00781 23.2344 7.55469 23.5312 5.88281C23.8281 4.19531 23.9922 2.375 24.0234 0.421875C25.3672 0.484375 26.6328 0.578125 27.8203 0.703125C29.0078 0.8125 30.0625 0.929688 30.9844 1.05469C32.0469 1.19531 33.0391 1.34375 33.9609 1.5V7.45312C33.7266 7.375 33.4219 7.28906 33.0469 7.19531C32.6875 7.10156 32.2812 7.00781 31.8281 6.91406C31.3906 6.80469 30.9141 6.70312 30.3984 6.60938C29.8984 6.5 29.3828 6.39062 28.8516 6.28125C28.7422 7.28125 28.5781 8.27344 28.3594 9.25781C28.1562 10.2266 27.8672 11.1562 27.4922 12.0469C27.1172 12.9375 26.6406 13.7578 26.0625 14.5078C25.5 15.2422 24.8047 15.875 23.9766 16.4062C25.0703 16.7656 26.0391 17.2969 26.8828 18C27.7266 18.7031 28.4531 19.5156 29.0625 20.4375C29.6875 21.3438 30.2031 22.3359 30.6094 23.4141C31.0312 24.4922 31.3672 25.5859 31.6172 26.6953C31.8672 27.8047 32.0469 28.9141 32.1562 30.0234C32.2656 31.1172 32.3203 32.1406 32.3203 33.0938C32.3203 33.6094 32.3047 34.1094 32.2734 34.5938C32.2578 35.0625 32.2266 35.5 32.1797 35.9062H26.6484C26.7266 35.3438 26.7734 34.8047 26.7891 34.2891C26.8203 33.7578 26.8359 33.2344 26.8359 32.7188C26.8359 30.6875 26.5938 28.8594 26.1094 27.2344C25.625 25.6094 24.9453 24.2344 24.0703 23.1094C23.1953 21.9688 22.1484 21.1016 20.9297 20.5078C19.7266 19.8984 18.3984 19.5938 16.9453 19.5938C15.9609 19.5938 15.125 19.6172 14.4375 19.6641C13.75 19.7109 13.1484 19.7812 12.6328 19.875C12.1172 19.9531 11.6562 20.0469 11.25 20.1562C10.8594 20.2656 10.4609 20.375 10.0547 20.4844V35.9062H4.28906V6.46875C3.39844 6.65625 2.57031 6.83594 1.80469 7.00781C1.05469 7.16406 0.492188 7.3125 0.117188 7.45312V1.5C1.00781 1.34375 1.99219 1.19531 3.07031 1.05469C3.97656 0.929688 5.03125 0.8125 6.23438 0.703125C7.4375 0.578125 8.71094 0.484375 10.0547 0.421875V13.875ZM54.7734 0.28125C57.1797 0.28125 59.4453 0.492188 61.5703 0.914062C63.6953 1.33594 65.5547 1.92188 67.1484 2.67188C68.7422 3.42188 70 4.32812 70.9219 5.39062C71.8438 6.4375 72.3047 7.59375 72.3047 8.85938V27.5156C72.3047 28.7812 71.8438 29.9453 70.9219 31.0078C70 32.0547 68.7422 32.9531 67.1484 33.7031C65.5547 34.4531 63.6953 35.0391 61.5703 35.4609C59.4453 35.8828 57.1797 36.0938 54.7734 36.0938C53.4297 36.0938 52.0547 36.0469 50.6484 35.9531C49.2422 35.8438 47.875 35.7109 46.5469 35.5547C45.2344 35.3828 44 35.1875 42.8438 34.9688C41.6875 34.75 40.6953 34.5156 39.8672 34.2656V2.10938C40.6953 1.85937 41.6875 1.625 42.8438 1.40625C44 1.1875 45.2344 1 46.5469 0.84375C47.875 0.671875 49.2422 0.539062 50.6484 0.445312C52.0547 0.335937 53.4297 0.28125 54.7734 0.28125ZM54.8672 5.57812C53.4453 5.57812 52.2109 5.625 51.1641 5.71875C50.1172 5.79688 49.2188 5.90625 48.4688 6.04688C47.7188 6.17188 47.0938 6.3125 46.5938 6.46875C46.1094 6.60938 45.7109 6.73438 45.3984 6.84375V29.5312C45.7109 29.6562 46.1094 29.7891 46.5938 29.9297C47.0938 30.0703 47.7188 30.2109 48.4688 30.3516C49.2188 30.4766 50.1172 30.5859 51.1641 30.6797C52.2109 30.7578 53.4453 30.7969 54.8672 30.7969C56.6172 30.7969 58.1875 30.6562 59.5781 30.375C60.9844 30.0938 62.1641 29.7188 63.1172 29.25C64.0859 28.7812 64.8281 28.2422 65.3438 27.6328C65.8594 27.0078 66.1172 26.3594 66.1172 25.6875V10.6875C66.1172 10.0156 65.8594 9.375 65.3438 8.76562C64.8281 8.14062 64.0859 7.59375 63.1172 7.125C62.1641 6.65625 60.9844 6.28125 59.5781 6C58.1875 5.71875 56.6172 5.57812 54.8672 5.57812Z" fill="#34547A"/>
</svg>
